<?xml version="1.0" standalone="no"?>
<!DOCTYPE svg PUBLIC "-//W3C//DTD SVG 20010904//EN"
 "http://www.w3.org/TR/2001/REC-SVG-20010904/DTD/svg10.dtd">
<svg version="1.0" xmlns="http://www.w3.org/2000/svg"
 width="600.000000pt" height="600.000000pt" viewBox="0 0 600.000000 600.000000"
 preserveAspectRatio="xMidYMid meet">
<metadata>
Created by potrace 1.11, written by Peter Selinger 2001-2013
</metadata>
<g transform="translate(0.000000,600.000000) scale(0.100000,-0.100000)"
fill="#000000" stroke="none">
<path d="M0 5990 c0 -13 30 -13 50 0 11 7 7 10 -17 10 -18 0 -33 -4 -33 -10z"/>
<path d="M5763 5173 c-7 -2 -13 -15 -13 -29 0 -17 -4 -22 -15 -18 -20 8 -47
-15 -41 -33 5 -11 -2 -12 -28 -7 -28 5 -36 2 -45 -14 -8 -16 -6 -25 10 -46 26
-33 16 -33 -23 -1 -33 28 -46 28 -62 3 -16 -26 8 -67 44 -74 16 -4 30 -10 30
-15 0 -14 -15 -11 -49 9 -35 20 -64 9 -69 -26 -4 -27 38 -40 74 -23 31 14 44
14 44 1 0 -5 -7 -10 -15 -10 -9 0 -28 -8 -42 -17 -14 -10 -39 -16 -54 -15 -34
4 -56 -27 -39 -57 15 -28 13 -32 -14 -25 -19 4 -27 0 -37 -17 -10 -20 -8 -26
22 -54 19 -18 40 -42 47 -54 12 -21 12 -22 -9 -16 -13 4 -35 9 -49 10 -15 1
-32 5 -38 9 -23 14 -89 -14 -121 -50 l-31 -37 30 -34 c37 -41 39 -55 4 -22
-14 13 -39 25 -57 26 -18 1 -46 4 -62 8 -24 5 -35 2 -49 -14 -11 -12 -27 -21
-36 -21 -10 0 -23 -13 -30 -30 -7 -16 -17 -30 -22 -30 -5 0 -8 -10 -6 -22 3
-22 8 -23 103 -26 55 -2 118 2 140 7 25 7 53 7 75 2 l35 -9 -39 -1 c-21 -1
-55 -10 -75 -20 -20 -11 -53 -22 -74 -26 -45 -7 -45 -25 1 -41 18 -5 37 -15
44 -22 7 -7 27 -12 45 -12 21 0 36 -6 40 -16 5 -12 15 -14 54 -9 27 4 49 4 49
1 0 -14 -44 -92 -66 -119 -28 -34 -33 -106 -9 -131 8 -8 15 -29 15 -47 0 -27
2 -30 16 -19 17 15 116 20 111 6 -2 -6 -38 -16 -81 -23 -77 -13 -122 -29 -160
-58 -19 -15 -14 -35 10 -35 17 0 19 -20 2 -21 -53 -3 -110 -21 -129 -40 -41
-41 7 -82 106 -92 l30 -3 -35 -16 c-19 -8 -61 -36 -93 -61 -32 -25 -71 -50
-87 -57 -17 -7 -30 -16 -30 -21 0 -16 30 -9 70 16 22 14 48 25 59 25 10 0 26
11 35 25 33 51 56 63 149 79 51 9 102 19 115 22 20 4 22 2 16 -21 -7 -29 2
-75 16 -75 5 0 36 26 70 58 34 31 71 60 83 64 44 13 138 8 170 -9 36 -18 110
-74 115 -86 2 -4 17 -20 33 -35 15 -15 35 -40 44 -57 15 -29 15 -29 13 45 l-3
75 -49 32 c-27 17 -67 35 -89 38 -25 5 -35 10 -27 15 7 4 10 12 7 18 -4 5 2
17 13 27 11 10 18 21 15 24 -7 13 65 82 77 75 9 -6 9 -9 0 -12 -17 -5 -15 -42
3 -48 8 -4 15 -11 15 -16 0 -5 9 -21 20 -35 l20 -26 0 630 0 630 -26 11 c-14
7 -32 9 -42 4 -9 -5 -32 -6 -51 -3 -29 5 -36 13 -51 51 -10 25 -16 55 -13 68
9 36 -19 60 -54 45z m22 -73 c3 -5 2 -10 -4 -10 -5 0 -13 5 -16 10 -3 6 -2 10
4 10 5 0 13 -4 16 -10z m-20 -71 c5 -6 3 -9 -5 -9 -27 0 -60 12 -60 21 0 11
50 1 65 -12z m75 -39 c0 -5 -4 -10 -10 -10 -5 0 -10 5 -10 10 0 6 5 10 10 10
6 0 10 -4 10 -10z m-90 -182 c15 -19 20 -21 34 -9 26 22 38 0 16 -27 -22 -27
-49 -23 -80 10 -15 16 -17 25 -9 35 15 17 18 17 39 -9z m235 -48 c3 -5 2 -10
-4 -10 -5 0 -13 5 -16 10 -3 6 -2 10 4 10 5 0 13 -4 16 -10z m-259 -25 c18
-14 18 -14 -7 -15 -16 0 -26 5 -26 15 0 19 8 19 33 0z m-122 -630 c-4 -8 -10
-15 -15 -15 -4 0 -6 7 -3 15 4 8 10 15 15 15 4 0 6 -7 3 -15z m-29 -35 c-3 -5
-11 -10 -16 -10 -6 0 -7 5 -4 10 3 6 11 10 16 10 6 0 7 -4 4 -10z m334 -176
c8 -7 -5 -14 -52 -28 -48 -14 -62 -10 -51 17 3 8 13 13 24 10 10 -3 21 0 25 7
6 9 41 6 54 -6z"/>
<path d="M2743 4856 c-62 -20 -126 -60 -163 -103 -88 -100 -111 -250 -57 -368
34 -74 102 -145 168 -175 27 -13 49 -29 49 -35 0 -6 9 -21 20 -33 24 -25 25
-32 6 -32 -8 0 -71 -69 -139 -152 -69 -84 -151 -182 -181 -218 -49 -57 -56
-70 -56 -107 0 -24 -1 -46 -2 -50 -1 -5 5 -9 13 -10 8 -1 30 -4 51 -8 l36 -6
0 -100 c0 -115 8 -99 -123 -219 -44 -41 -109 -101 -145 -135 -36 -33 -127
-116 -202 -184 -76 -68 -138 -127 -138 -133 0 -5 23 -18 50 -30 l50 -21 -5
-856 c-3 -471 -8 -875 -11 -898 -3 -23 -11 -44 -19 -47 -8 -3 -15 -18 -15 -33
0 -15 -3 -45 -6 -65 -6 -31 -11 -38 -38 -44 -49 -10 -50 -14 -7 -42 22 -14 42
-36 46 -49 3 -13 12 -23 19 -23 8 0 21 -6 28 -13 7 -7 32 -23 56 -35 24 -12
53 -32 65 -43 12 -12 37 -32 55 -46 17 -14 32 -30 32 -35 0 -23 37 -43 89 -48
31 -3 157 5 281 17 202 19 451 37 690 48 47 2 199 4 338 4 l252 1 12 25 c6 13
15 22 19 19 4 -2 20 -2 34 2 20 5 23 9 14 20 -6 8 -22 12 -34 10 -19 -4 -24 1
-29 26 -3 17 -6 47 -6 66 0 23 -8 44 -22 60 l-23 24 -3 949 -2 949 51 0 c35 0
50 4 47 13 -2 6 -79 85 -173 174 -93 89 -239 229 -323 310 l-154 148 -1 117
-2 117 29 5 c16 3 39 6 52 6 22 0 24 4 24 49 l0 50 -185 213 c-102 117 -197
219 -210 226 l-25 13 20 21 c11 12 20 30 20 40 0 10 6 18 13 18 31 0 120 75
157 131 51 79 67 151 53 233 -30 177 -158 295 -327 303 -42 2 -88 -3 -113 -11z
m204 -71 c61 -26 120 -81 150 -143 23 -47 28 -69 27 -127 0 -40 -7 -86 -16
-106 -20 -46 -82 -115 -121 -135 -28 -15 -31 -14 -56 10 -42 40 -75 48 -122
30 -22 -9 -44 -25 -50 -35 -15 -28 -38 -23 -94 19 -73 55 -110 133 -109 226 0
40 7 87 16 107 32 75 119 150 196 169 47 11 132 4 179 -15z m-122 -1285 c3 -5
2 -10 -4 -10 -5 0 -13 5 -16 10 -3 6 -2 10 4 10 5 0 13 -4 16 -10z m55 -96 c0
-2 -7 -4 -15 -4 -8 0 -15 4 -15 10 0 5 7 7 15 4 8 -4 15 -8 15 -10z m-749
-765 c31 -11 83 -30 115 -42 l59 -23 6 -305 c6 -334 -4 -1345 -14 -1355 -5 -5
-157 101 -241 169 l-29 23 1 410 c1 225 5 577 8 782 6 336 9 372 23 367 9 -4
41 -15 72 -26z m1517 -863 l-3 -811 -135 -12 c-621 -54 -1008 -77 -1025 -62
-10 10 -11 1656 -2 1665 10 10 1126 44 1155 36 10 -4 12 -166 10 -816z"/>
<path d="M5760 3622 c0 -6 -9 -8 -19 -5 -29 8 -61 -14 -61 -42 0 -15 -6 -25
-14 -25 -26 0 -53 -52 -54 -103 -1 -39 4 -53 28 -80 21 -25 26 -37 18 -45 -8
-8 -17 -6 -34 5 -14 9 -24 11 -24 5 0 -6 4 -13 9 -17 5 -3 -1 -17 -14 -31 -18
-19 -29 -23 -49 -18 -34 8 -76 -3 -76 -21 0 -7 -4 -16 -9 -19 -16 -10 -41 5
-41 25 0 10 -10 23 -22 30 -18 10 -24 8 -38 -11 -14 -18 -21 -20 -37 -12 -11
6 -25 18 -32 26 -9 11 -20 12 -44 5 -24 -7 -33 -5 -40 6 -13 23 -36 18 -43
-10 -7 -29 -8 -29 -35 -12 -17 10 -22 9 -34 -7 -11 -15 -21 -17 -51 -11 -24 4
-39 2 -44 -5 -6 -9 -12 -9 -28 1 -18 11 -24 10 -42 -6 -29 -26 -38 -10 -10 20
29 30 21 60 -14 51 -15 -4 -28 0 -36 9 -15 18 -42 19 -58 3 -9 -9 -16 -7 -31
6 -12 11 -25 15 -33 10 -7 -5 -30 -8 -51 -9 -21 0 -41 -5 -45 -11 -4 -6 -24
-14 -44 -18 -21 -4 -38 -11 -38 -17 0 -5 -6 -9 -12 -8 -24 4 -68 -13 -77 -29
-8 -13 -14 -14 -33 -5 -12 6 -36 14 -53 18 -16 4 -48 15 -72 26 -48 22 -53 23
-53 9 0 -5 6 -10 14 -10 16 0 28 -37 15 -46 -5 -3 -7 -10 -4 -15 4 -5 2 -9 -3
-9 -14 0 -22 39 -10 46 6 4 1 12 -13 20 -18 9 -27 9 -37 1 -17 -14 -81 -10
-101 6 -12 9 -11 5 2 -13 10 -14 20 -32 23 -40 3 -8 28 -25 55 -38 57 -27 66
-51 17 -47 -18 2 -35 4 -38 5 -3 1 -8 2 -12 1 -4 0 -23 6 -42 14 -40 17 -96
20 -96 5 0 -5 5 -10 12 -10 6 0 9 -3 6 -6 -3 -3 -15 0 -26 7 -16 10 -24 10
-44 -3 -17 -11 -40 -14 -85 -10 -56 4 -63 2 -64 -14 -4 -56 6 -65 55 -54 30 6
45 5 62 -7 32 -21 30 -30 -7 -31 -18 0 -37 -6 -42 -11 -6 -6 -24 -11 -39 -11
-15 0 -28 -4 -28 -10 0 -17 45 -22 101 -12 30 5 80 7 112 5 38 -4 57 -2 57 6
0 6 7 11 15 11 8 0 15 5 15 11 0 7 10 5 26 -6 31 -20 141 -34 130 -17 -4 7
-17 12 -29 13 -12 0 -16 3 -9 6 10 4 8 9 -7 20 -12 8 -26 11 -31 8 -6 -4 -24
5 -40 18 l-29 25 42 5 c23 3 47 1 54 -5 7 -5 17 -7 23 -3 5 3 10 2 10 -4 0 -5
9 -13 21 -16 14 -5 19 -13 16 -26 -3 -11 1 -26 10 -34 13 -14 10 -19 -10 -16
-5 1 -6 -3 -2 -9 3 -5 14 -10 23 -11 38 -2 -97 -29 -152 -30 -59 -2 -59 -2
-38 -20 12 -9 22 -22 22 -28 0 -6 8 -11 18 -11 15 0 15 -2 2 -11 -13 -9 -13
-10 0 -8 8 2 29 0 45 -4 17 -3 54 -9 84 -12 32 -4 62 -14 74 -26 12 -10 27
-19 34 -19 18 0 16 -17 -3 -24 -22 -9 -13 -16 26 -22 25 -4 30 -3 24 8 -4 8 0
7 12 -3 31 -26 54 -31 61 -12 4 9 1 19 -5 21 -26 8 -11 24 18 19 22 -5 30 -3
30 7 0 25 29 25 117 0 107 -31 124 -44 52 -39 -30 2 -60 4 -67 4 -7 1 -10 6
-6 13 4 7 3 8 -5 4 -6 -4 -18 -3 -26 4 -9 7 -15 8 -20 0 -3 -5 1 -13 9 -16 28
-11 17 -23 -23 -26 -36 -3 -38 -5 -30 -27 8 -19 12 -21 24 -11 13 10 15 9 15
-9 0 -11 -4 -21 -9 -21 -11 0 -2 -39 12 -58 6 -8 -6 -4 -27 9 -29 17 -46 20
-81 16 -46 -7 -102 13 -112 38 -6 16 -33 8 -30 -8 1 -7 -9 -12 -22 -12 -17 0
-29 10 -42 35 -11 19 -19 28 -20 20 0 -8 -2 -30 -5 -49 -5 -42 18 -83 43 -74
12 5 15 2 10 -10 -4 -11 -1 -17 7 -17 7 0 23 -9 36 -20 13 -11 18 -20 11 -20
-7 0 -9 -5 -5 -11 3 -6 16 -8 27 -5 12 3 28 -1 37 -9 12 -11 24 -12 47 -6 25
7 33 6 37 -6 3 -8 10 -11 16 -8 12 7 10 64 -2 71 -4 3 -8 13 -8 23 0 22 29 24
53 3 13 -12 22 -13 42 -4 41 19 123 26 140 12 22 -18 12 -26 -65 -49 -38 -12
-70 -26 -70 -31 0 -5 -9 -12 -20 -15 -38 -12 -23 -35 23 -36 l42 -1 -45 -10
c-52 -11 -70 -29 -66 -66 4 -30 -7 -29 176 -18 93 6 98 8 232 74 132 66 136
67 116 38 -12 -17 -36 -47 -54 -66 -18 -19 -37 -53 -43 -75 -15 -58 -12 -200
5 -222 7 -10 14 -25 14 -34 0 -37 33 -59 88 -61 33 -2 52 -7 52 -14 0 -7 7
-20 16 -29 15 -15 15 -17 -6 -32 -22 -16 -23 -17 -16 -192 13 -339 33 -495 86
-696 52 -198 95 -313 147 -397 31 -51 20 -49 -13 2 -21 31 -33 40 -53 39 -24
-2 -24 -2 -3 -6 31 -6 17 -23 -19 -23 -34 0 -39 -17 -6 -23 13 -3 6 -5 -18 -6
-30 -2 -35 -4 -21 -10 17 -7 15 -9 -15 -20 -26 -9 -31 -14 -19 -21 12 -8 12
-10 -4 -16 -11 -4 -21 -2 -26 6 -9 14 -50 -3 -50 -22 0 -7 -21 -9 -67 -4 -75
8 -79 -4 -5 -15 l47 -6 -42 -2 c-24 0 -43 -5 -43 -11 0 -5 5 -10 12 -10 6 0 8
-3 5 -6 -4 -4 -17 0 -29 8 -16 10 -51 15 -113 15 -73 -1 -77 -1 -22 -4 94 -5
84 -23 -15 -25 l-83 -2 80 -5 c57 -4 73 -8 55 -13 -14 -4 -38 -8 -54 -8 -28 0
-29 0 -11 -20 10 -11 31 -20 49 -21 17 0 49 -4 71 -8 32 -7 20 -9 -55 -8 -52
0 -126 -8 -165 -16 -38 -9 -83 -18 -100 -21 -16 -2 7 -2 53 1 52 3 82 1 82 -5
0 -6 -6 -13 -12 -16 -7 -3 -3 -3 10 0 30 7 30 -22 0 -32 l-21 -6 24 -14 c13
-7 41 -13 62 -14 41 0 49 -22 9 -25 -29 -2 -39 -13 -18 -20 9 -3 23 -7 32 -10
31 -10 4 -20 -62 -23 -38 -2 -72 -6 -76 -8 -4 -3 -74 -14 -155 -25 -81 -10
-152 -24 -157 -29 -7 -7 -4 -10 7 -11 22 -2 26 -3 62 -18 30 -13 208 -16 250
-5 13 4 10 -2 -10 -15 -16 -12 -48 -22 -70 -22 l-40 -2 40 -7 40 -7 -40 -2
c-74 -5 5 -19 84 -16 39 1 74 -1 77 -6 3 -5 -21 -9 -53 -9 -65 -1 -112 -23
-71 -34 13 -3 308 -6 656 -6 l632 0 0 1550 c0 1619 0 1636 -40 1498 -32 -112
-60 -50 -57 127 l2 119 32 10 c27 7 32 13 27 30 -5 20 3 62 21 124 6 17 3 22
-12 22 -17 0 -62 48 -63 67 -1 4 -13 22 -28 40 -20 23 -39 33 -74 38 -31 5
-48 4 -48 -3z m-1240 -392 c8 -5 11 -10 5 -10 -5 0 -17 5 -25 10 -8 5 -10 10
-5 10 6 0 17 -5 25 -10z m-190 -10 c0 -5 -2 -10 -4 -10 -3 0 -8 5 -11 10 -3 6
-1 10 4 10 6 0 11 -4 11 -10z m1360 -85 c0 -5 -5 -3 -10 5 -5 8 -10 20 -10 25
0 6 5 3 10 -5 5 -8 10 -19 10 -25z m-1559 -23 c-7 -2 -18 1 -23 6 -8 8 -4 9
13 5 13 -4 18 -8 10 -11z m45 -47 c10 -8 15 -14 9 -14 -5 0 -19 6 -29 14 -11
8 -15 15 -10 15 6 0 19 -7 30 -15z m944 -7 c9 -20 9 -21 -2 -7 -7 9 -20 18
-28 22 -12 4 -12 6 2 6 10 1 22 -9 28 -21z m-674 -113 c-15 -8 -33 -15 -40
-15 -16 1 36 29 54 30 8 0 2 -7 -14 -15z m584 -35 c12 -8 11 -10 -7 -10 -13 0
-23 5 -23 10 0 13 11 13 30 0z m-266 -45 c21 -19 34 -35 29 -35 -4 -1 6 -7 22
-15 18 -8 23 -14 13 -14 -25 -1 -68 17 -68 29 0 15 -33 50 -46 50 -7 0 -14 -5
-16 -12 -3 -7 -10 -8 -17 -4 -9 6 -7 12 11 21 33 18 31 19 72 -20z m216 5 c-6
-11 -16 -20 -22 -20 -6 0 -3 9 7 20 10 11 20 20 22 20 2 0 -1 -9 -7 -20z m290
-100 c6 0 10 -4 10 -10 0 -5 -11 -10 -25 -10 -18 0 -31 10 -45 33 -29 47 -24
53 15 18 20 -17 40 -31 45 -31z m-246 14 c3 -9 3 -20 0 -26 -3 -5 3 -12 15
-15 20 -5 31 -33 13 -33 -15 0 -69 65 -64 78 5 17 29 15 36 -4z m61 -6 c8 -17
18 -22 39 -21 31 2 25 -11 -9 -21 -16 -4 -25 1 -38 23 -19 32 -21 41 -9 41 4
0 12 -10 17 -22z m-175 -33 c0 -12 -29 -3 -34 10 -4 13 -2 14 14 5 11 -6 20
-13 20 -15z m-109 -48 c10 -37 -7 -34 -20 4 -8 23 -8 30 1 27 7 -3 15 -16 19
-31z m174 3 c20 -21 24 -30 14 -30 -9 0 -28 14 -44 30 -20 21 -24 30 -14 30 9
0 28 -13 44 -30z m-104 -10 c9 0 22 -7 29 -15 11 -13 9 -15 -11 -11 -13 3 -28
5 -34 5 -21 2 -37 19 -30 31 5 8 10 9 18 1 6 -6 19 -11 28 -11z m-33 -52 c26
0 58 0 72 0 22 2 21 0 -9 -13 -51 -23 -141 -3 -141 31 0 14 2 14 16 0 9 -9 35
-17 62 -18z m-393 -18 c3 -5 -1 -10 -9 -10 -9 0 -16 5 -16 10 0 6 4 10 9 10 6
0 13 -4 16 -10z m45 -21 c0 -6 -4 -7 -10 -4 -5 3 -10 11 -10 16 0 6 5 7 10 4
6 -3 10 -11 10 -16z m-75 1 c3 -5 1 -10 -4 -10 -6 0 -11 5 -11 10 0 6 2 10 4
10 3 0 8 -4 11 -10z m1454 -82 c-1 -13 -4 -34 -9 -48 -7 -24 -7 -24 -17 10 -7
23 -7 39 0 48 15 19 27 14 26 -10z m-91 2 c14 0 17 -11 17 -65 0 -73 13 -100
44 -90 13 4 28 0 41 -13 l21 -19 -21 -6 c-26 -7 -25 -16 5 -49 24 -26 37 -98
17 -98 -14 0 -32 23 -32 41 0 9 -6 22 -14 28 -8 7 -17 28 -21 47 -3 19 -21 52
-39 72 -39 43 -59 79 -52 91 3 4 1 23 -4 40 -8 28 -7 32 6 27 9 -3 23 -6 32
-6z m-141 -165 c21 -33 20 -43 -2 -27 -14 9 -37 62 -27 62 4 -1 17 -16 29 -35z
m-37 -241 c0 -2 -9 0 -20 6 -11 6 -20 13 -20 16 0 2 9 0 20 -6 11 -6 20 -13
20 -16z m166 -31 l23 -53 -57 0 c-31 0 -68 -3 -81 -7 -20 -5 -22 -3 -16 16 4
14 1 31 -9 46 -16 24 -16 24 14 18 24 -4 36 -1 51 16 30 32 49 23 75 -36z
m-575 -6 c-10 -9 -11 -8 -5 6 3 10 9 15 12 12 3 -3 0 -11 -7 -18z m106 -213
c-3 -3 -12 -4 -19 -1 -8 3 -5 6 6 6 11 1 17 -2 13 -5z m-310 -1410 c-3 -3 -12
-4 -19 -1 -8 3 -5 6 6 6 11 1 17 -2 13 -5z m-202 -434 c27 -7 25 -8 -17 -9
-27 0 -48 4 -48 9 0 11 21 11 65 0z"/>
<path d="M5985 3420 c-3 -5 -1 -10 4 -10 6 0 11 5 11 10 0 6 -2 10 -4 10 -3 0
-8 -4 -11 -10z"/>
<path d="M3950 3346 c0 -2 7 -7 16 -10 8 -3 12 -2 9 4 -6 10 -25 14 -25 6z"/>
<path d="M4091 3230 c9 -14 36 -31 60 -40 24 -8 50 -19 57 -23 8 -5 12 -3 12
8 0 8 -8 18 -17 21 -10 3 -30 12 -45 20 -16 8 -28 12 -28 8 0 -3 -12 2 -27 12
l-28 18 16 -24z"/>
<path d="M4252 3080 c54 -34 67 -37 48 -14 -12 14 -73 44 -89 44 -3 0 15 -14
41 -30z"/>
<path d="M4278 2983 c7 -3 16 -2 19 1 4 3 -2 6 -13 5 -11 0 -14 -3 -6 -6z"/>
<path d="M4135 2880 c3 -5 8 -10 11 -10 2 0 4 5 4 10 0 6 -5 10 -11 10 -5 0
-7 -4 -4 -10z"/>
<path d="M4162 2846 c10 -7 15 -16 12 -19 -3 -3 9 -24 27 -47 31 -38 36 -41
70 -35 21 4 48 2 61 -5 21 -10 21 -10 5 3 -12 10 -14 17 -8 22 30 18 -12 33
-103 39 -14 0 -26 4 -26 9 0 7 16 11 33 8 5 -1 5 4 2 10 -4 6 -16 9 -26 6 -11
-3 -19 -1 -19 3 0 5 8 11 18 13 9 3 -1 5 -23 6 -35 0 -38 -1 -23 -13z"/>
<path d="M4525 2730 c3 -5 12 -7 20 -3 21 7 19 13 -6 13 -11 0 -18 -4 -14 -10z"/>
<path d="M4435 2490 c-3 -5 1 -10 10 -10 9 0 13 5 10 10 -3 6 -8 10 -10 10 -2
0 -7 -4 -10 -10z"/>
<path d="M0 800 c0 -111 0 -112 23 -107 51 12 121 18 288 21 136 3 184 8 207
20 17 9 40 16 51 16 10 0 21 4 23 10 3 9 134 30 201 32 15 1 27 5 27 10 0 5
12 20 26 33 15 14 22 25 15 25 -6 0 -11 4 -11 9 0 5 36 12 81 16 44 4 79 9 77
11 -2 1 -230 6 -506 9 l-502 6 0 -111z"/>
<path d="M4733 473 c9 -2 23 -2 30 0 6 3 -1 5 -18 5 -16 0 -22 -2 -12 -5z"/>
<path d="M0 406 c0 -13 11 -16 48 -15 45 1 46 2 12 8 -20 4 -41 11 -48 15 -7
4 -12 1 -12 -8z"/>
<path d="M0 370 c0 -13 67 -13 75 0 4 6 -10 10 -34 10 -23 0 -41 -4 -41 -10z"/>
<path d="M70 250 c11 -7 4 -10 -27 -10 l-43 0 0 -120 0 -120 617 0 c339 0 614
2 612 5 -3 2 -40 7 -82 9 -43 3 -86 10 -97 16 -14 7 -26 8 -39 0 -24 -12 -51
-13 -51 -1 0 5 10 12 23 16 15 5 -8 10 -73 17 -112 10 -191 29 -95 22 l60 -4
-40 14 c-39 13 -39 13 -16 23 22 9 22 10 6 17 -10 4 -21 2 -25 -5 -9 -13 -71
-2 -82 15 -5 7 8 13 40 17 40 5 35 6 -38 9 -47 2 -98 3 -113 2 -40 -3 -114 18
-98 27 23 15 -52 36 -125 36 -51 0 -70 3 -67 12 4 9 -4 10 -29 3 -62 -17 -193
-17 -183 0 4 6 -6 10 -22 10 -22 0 -25 -2 -13 -10z m410 -49 c0 -5 -11 -12
-24 -15 -13 -3 -31 -9 -40 -12 -9 -3 -16 -1 -16 5 0 6 9 11 19 11 11 0 23 5
26 10 8 12 35 13 35 1z m253 -128 c-13 -2 -35 -2 -50 0 -16 2 -5 4 22 4 28 0
40 -2 28 -4z"/>
</g>
</svg>
